Simulation
nRows=16
nColumns=15
endheader
time  TH_x TH_y TH_z SC_y  SC_z  SC_x  AC_y  AC_z  AC_x  GH_y  GH_z  GH_yy  EL_x  PS_y
0.0  0.000000  0.000000  0.000000  -21.86017668179821  0.1830330952276921  -0.42530155035019207  60.56047905613899  3.7466343223993093  -6.2305895223196135  6.578750992633905  18.280184337112896  25.186892235101393  31.908851959178406  120.000000
0.025  0.000000  0.000000  0.000000  -21.992085190445543  0.30157707302515036  -0.7922184279321255  60.43220392039831  4.421069717098564  -6.135727810733584  6.678152996069841  18.39993701693093  24.635889233227157  31.861307018536234  120.000000
0.05  0.000000  0.000000  0.000000  -22.101580228554155  0.368683718089328  -1.1293224254397396  60.356487751719555  5.005962797540682  -6.002023143202149  6.8167935423957955  18.49895441705142  24.084420499587143  31.731190793106375  120.000000
0.07500000000000001  0.000000  0.000000  0.000000  -22.202356148647  0.40457861719212324  -1.431801977619365  60.33746436542254  5.520061638182804  -5.844324926535161  6.985523613401523  18.595735107384993  23.5126518244031  31.560591150486868  120.000000
0.1  0.000000  0.000000  0.000000  -22.312792414487827  0.42913103996976776  -1.6976295704485203  60.37318224649743  5.981728905484954  -5.673192125895657  7.173803662643663  18.704331316998978  22.90410131759936  31.386996269148405  120.000000
0.125  0.000000  0.000000  0.000000  -22.445092869211287  0.45348243299725544  -1.923016420110783  60.457265415612945  6.40875010179313  -5.498371816187544  7.36811063715595  18.83839940176743  22.246398265659256  31.23009504472716  120.000000
0.15000000000000002  0.000000  0.000000  0.000000  -22.60566299074935  0.48863598265924746  -2.105461608023491  60.584796665581294  6.817511083607129  -5.32419894180469  7.555773224045657  19.012525902549797  21.533675943706058  31.100931617591403  120.000000
0.17500000000000002  0.000000  0.000000  0.000000  -22.795953942345662  0.5396691818966984  -2.243412827793692  60.74888622816595  7.221867271103197  -5.153541662360169  7.7237428106258434  19.239531718831383  20.766548707509116  31.000540823837373  120.000000
0.2  0.000000  0.000000  0.000000  -23.01504778309896  0.6105472652004904  -2.3362617770232825  60.943382673642326  7.631859119042463  -4.986120256005712  7.859945522709953  19.529532388074497  19.951102484939625  30.92745237277757  120.000000
0.225  0.000000  0.000000  0.000000  -23.2595921577105  0.7020330887942732  -2.384202790384576  61.16373282108551  8.05515073189476  -4.821783474094558  7.952759547659518  19.889836246025236  19.096988103587282  30.877857034614962  120.000000
0.25  0.000000  0.000000  0.000000  -23.526749522734054  0.814837862709819  -2.388278778572123  61.40804255211288  8.497291197935626  -4.659381704198235  7.99124189971985  20.32508265065125  18.215061715641326  30.8488798179469  120.000000
0.275  0.000000  0.000000  0.000000  -23.814416366669953  0.9472556411041919  -2.349712488145341  61.67604136845157  8.962956091104283  -4.49833726888493  7.964861239062248  20.837501554868393  17.315720356178975  30.837122796821408  120.000000
0.30000000000000004  0.000000  0.000000  0.000000  -24.12246360779734  1.096660345895162  -2.2700414012964933  61.96931201423354  9.455729407059357  -4.337490931116209  7.863953035765478  21.427304212504705  16.40717624444009  30.839552715690026  120.000000
0.325  0.000000  0.000000  0.000000  -24.451735786510252  1.2583104328614103  -2.151111979612921  62.29052833178868  9.978659668525408  -4.176303530782221  7.680207002530984  22.093236712125467  15.494862879152736  30.85232921747057  120.000000
0.35000000000000003  0.000000  0.000000  0.000000  -24.803778154507818  1.4269746029987807  -1.9953709040644527  62.64304385477555  10.533873490157681  -4.014168299879919  7.407602393194586  22.83310210415205  14.581173459079107  30.87132291055377  120.000000
0.375  0.000000  0.000000  0.000000  -25.17933995679695  1.5966837986352198  -1.805783205545222  63.02961168902852  11.122750801177967  -3.851334923304417  7.043383885127134  23.64432541214373  13.666348463903637  30.891615419790252  120.000000
